<svg xmlns="http://www.w3.org/2000/svg" viewBox="0 0 102 99.9"><defs><style>.cls-1,.cls-2{fill:none;stroke-miterlimit:1;}.cls-1{stroke:#f7edf9;stroke-width:2px;}.cls-2{stroke:#17a2b8;stroke-width:0.25px;}</style></defs><title>Asset 1</title><g id="Layer_2" data-name="Layer 2"><g id="Layer_1-2" data-name="Layer 1"><path class="cls-1" d="M93.85,64.44c-3.52,0-6.86-2.22-7.43-4.84S84.91,55,84.34,55.22s-1.66,4.12-2.41,8.69L79.21,80.29c-.76,4.57-1.38,7.76-1.38,7.08s-.29-5-.64-9.62l0-.36c-.36-4.62-.93-12.19-1.27-16.81L74.31,39.29c-.34-4.62-1-8.4-1.43-8.4s-.82,0-.83,0-.54,3.78-1.13,8.38L69.11,53.42,68,61.78s-.16,1.3-.37,2.88l-.19,1.49-.11.9c-.07.5-1.18,0-2.48-1.07a9.74,9.74,0,0,0-4.26-2.14l-5.56-.45-3.66-.31-7.88-.74h-1c-.26,0-.32-.39-.15-.88s.46-1.27.64-1.72.49-1.52.7-2.36a35.76,35.76,0,0,0,.64-4,34.36,34.36,0,0,0,.06-5.09A23.2,23.2,0,0,0,43.2,42.9a22.11,22.11,0,0,0-2.29-4.47A23.75,23.75,0,0,0,38.8,36a22.53,22.53,0,0,0-2.23-1.73,31.45,31.45,0,0,0-2.8-1.65c-.78-.39-2-1-2.68-1.4a15.51,15.51,0,0,0-2.55-1.09,5.06,5.06,0,0,1-2-1.27c-.42-.49-1-1.15-1.21-1.47A1.52,1.52,0,0,1,25,26.13a2.88,2.88,0,0,1,1.15-1.21,16.89,16.89,0,0,0,1.91-1.4c.53-.46,1.33-1.15,1.79-1.53a9.27,9.27,0,0,0,1.53-1.91,12.58,12.58,0,0,0,1-2.43,13.38,13.38,0,0,0,.32-2.74,5.59,5.59,0,0,1,.7-2.61c.38-.6,1-1.66,1.34-2.36a14,14,0,0,0,.63-4.59c0-1.82-.28-3.34-.63-3.38a2.15,2.15,0,0,0-1.28.45,5.42,5.42,0,0,1-1.91.76l-2.81.58A11,11,0,0,1,26.28,4a17.55,17.55,0,0,1-3.89-1.54A13.76,13.76,0,0,0,17.63,1a19.47,19.47,0,0,0-5.42,1.45A19.84,19.84,0,0,1,6.39,3.91a7.4,7.4,0,0,0-3,.53A3.45,3.45,0,0,0,2.21,5.73,7.55,7.55,0,0,0,1.89,8a6.06,6.06,0,0,1-.44,2.3A5.81,5.81,0,0,0,1,12.55,4.54,4.54,0,0,0,1.76,15c.43.52,1.34,1.67,2.05,2.55a26.27,26.27,0,0,0,1.84,2.1,2.43,2.43,0,0,1,.7,1.27A4.86,4.86,0,0,1,5.91,23,17.92,17.92,0,0,1,4.7,25.3a14,14,0,0,0-1.09,2.11,12.48,12.48,0,0,0-.51,3.18c0,1.13,0,2.73,0,3.57a9.29,9.29,0,0,0,.77,3,23.89,23.89,0,0,0,1.91,3.12,32.15,32.15,0,0,0,2.81,3.25,13.69,13.69,0,0,0,2.35,2c.43.21.77,1.67.77,3.25s-.23,4.76-.51,7.08a31.76,31.76,0,0,1-.83,4.85,1.24,1.24,0,0,1-1,.65H7.82a2,2,0,0,0-1.4.76,3.47,3.47,0,0,0-.64,1.51c0,.43-.09,1.37-.13,2.11a6.12,6.12,0,0,0,.51,2.48A2.21,2.21,0,0,0,8,69.35H43.24s2.75,0,6.1,0,13.43.34,14,.77,2.56,2,3.1,2.48a3.35,3.35,0,0,0,2.42.59c.7-.14,1.37-1.26,1.48-2.48s.25-2.59.3-3,.27-2.88.38-4,.21-2.11.21-2.14.32-3.28.69-7.16.68-7.07.68-7.11.08-.84.17-1.72.16-1.66.17-1.75.29,3.53.62,8.15l2.76,38.56c.33,4.62,1.07,8.41,1.64,8.41s1.58-3.76,2.24-8.34L83.23,69.4c.66-4.58,1.63-7.06,2.15-5.51s4.08,2.79,7.91,2.74,7.2-.32,7.49-.58a.69.69,0,0,0,0-1C100.49,64.76,97.37,64.49,93.85,64.44Z"/><path class="cls-2" d="M93.85,64.44c-3.52,0-6.86-2.22-7.43-4.84S84.91,55,84.34,55.22s-1.66,4.12-2.41,8.69L79.21,80.29c-.76,4.57-1.38,7.76-1.38,7.08s-.29-5-.64-9.62l0-.36c-.36-4.62-.93-12.19-1.27-16.81L74.31,39.29c-.34-4.62-1-8.4-1.43-8.4s-.82,0-.83,0-.54,3.78-1.13,8.38L69.11,53.42,68,61.78s-.16,1.3-.37,2.88l-.19,1.49-.11.9c-.07.5-1.18,0-2.48-1.07a9.74,9.74,0,0,0-4.26-2.14l-5.56-.45-3.66-.31-7.88-.74h-1c-.26,0-.32-.39-.15-.88s.46-1.27.64-1.72.49-1.52.7-2.36a35.76,35.76,0,0,0,.64-4,34.36,34.36,0,0,0,.06-5.09A23.2,23.2,0,0,0,43.2,42.9a22.11,22.11,0,0,0-2.29-4.47A23.75,23.75,0,0,0,38.8,36a22.53,22.53,0,0,0-2.23-1.73,31.45,31.45,0,0,0-2.8-1.65c-.78-.39-2-1-2.68-1.4a15.51,15.51,0,0,0-2.55-1.09,5.06,5.06,0,0,1-2-1.27c-.42-.49-1-1.15-1.21-1.47A1.52,1.52,0,0,1,25,26.13a2.88,2.88,0,0,1,1.15-1.21,16.89,16.89,0,0,0,1.91-1.4c.53-.46,1.33-1.15,1.79-1.53a9.27,9.27,0,0,0,1.53-1.91,12.58,12.58,0,0,0,1-2.43,13.38,13.38,0,0,0,.32-2.74,5.59,5.59,0,0,1,.7-2.61c.38-.6,1-1.66,1.34-2.36a14,14,0,0,0,.63-4.59c0-1.82-.28-3.34-.63-3.38a2.15,2.15,0,0,0-1.28.45,5.42,5.42,0,0,1-1.91.76l-2.81.58A11,11,0,0,1,26.28,4a17.55,17.55,0,0,1-3.89-1.54A13.76,13.76,0,0,0,17.63,1a19.47,19.47,0,0,0-5.42,1.45A19.84,19.84,0,0,1,6.39,3.91a7.4,7.4,0,0,0-3,.53A3.45,3.45,0,0,0,2.21,5.73,7.55,7.55,0,0,0,1.89,8a6.06,6.06,0,0,1-.44,2.3A5.81,5.81,0,0,0,1,12.55,4.54,4.54,0,0,0,1.76,15c.43.52,1.34,1.67,2.05,2.55a26.27,26.27,0,0,0,1.84,2.1,2.43,2.43,0,0,1,.7,1.27A4.86,4.86,0,0,1,5.91,23,17.92,17.92,0,0,1,4.7,25.3a14,14,0,0,0-1.09,2.11,12.48,12.48,0,0,0-.51,3.18c0,1.13,0,2.73,0,3.57a9.29,9.29,0,0,0,.77,3,23.89,23.89,0,0,0,1.91,3.12,32.15,32.15,0,0,0,2.81,3.25,13.69,13.69,0,0,0,2.35,2c.43.21.77,1.67.77,3.25s-.23,4.76-.51,7.08a31.76,31.76,0,0,1-.83,4.85,1.24,1.24,0,0,1-1,.65H7.82a2,2,0,0,0-1.4.76,3.47,3.47,0,0,0-.64,1.51c0,.43-.09,1.37-.13,2.11a6.12,6.12,0,0,0,.51,2.48A2.21,2.21,0,0,0,8,69.35H43.24s2.75,0,6.1,0,13.43.34,14,.77,2.56,2,3.1,2.48a3.35,3.35,0,0,0,2.42.59c.7-.14,1.37-1.26,1.48-2.48s.25-2.59.3-3,.27-2.88.38-4,.21-2.11.21-2.14.32-3.28.69-7.16.68-7.07.68-7.11.08-.84.17-1.72.16-1.66.17-1.75.29,3.53.62,8.15l2.76,38.56c.33,4.62,1.07,8.41,1.64,8.41s1.58-3.76,2.24-8.34L83.23,69.4c.66-4.58,1.63-7.06,2.15-5.51s4.08,2.79,7.91,2.74,7.2-.32,7.49-.58a.69.69,0,0,0,0-1C100.49,64.76,97.37,64.49,93.85,64.44Z"/></g></g></svg>
